<svg id="Layer_1" data-name="Layer 1" xmlns="http://www.w3.org/2000/svg" viewBox="0 0 65 65"><defs><style>.cls-1{fill:#f5a02d;}</style></defs><title>about_us_icon</title><polygon class="cls-1" points="31.8 2.8 31.8 8.3 33.2 8.3 33.2 2.8 35.2 4.8 36.2 3.7 32.5 0 28.8 3.7 29.8 4.8 31.8 2.8"/><rect class="cls-1" x="31.8" y="9.8" width="1.5" height="1.5"/><rect class="cls-1" x="31.8" y="12.7" width="1.5" height="1.5"/><polygon class="cls-1" points="33.2 62.2 33.2 56.7 31.8 56.7 31.8 62.2 29.8 60.2 28.8 61.3 32.5 65 36.2 61.3 35.2 60.2 33.2 62.2"/><rect class="cls-1" x="31.8" y="53.7" width="1.5" height="1.5"/><rect class="cls-1" x="31.8" y="50.8" width="1.5" height="1.5"/><polygon class="cls-1" points="11 14.8 11 12 14.8 15.9 15.9 14.8 12 11 14.8 11 14.8 9.5 9.5 9.5 9.5 14.8 11 14.8"/><rect class="cls-1" x="16.21" y="16.19" width="1.5" height="1.5" transform="translate(-7.01 16.98) rotate(-45.06)"/><rect class="cls-1" x="18.3" y="18.3" width="1.5" height="1.5" transform="translate(-7.89 19.09) rotate(-45.08)"/><polygon class="cls-1" points="54 50.2 54 53 50.2 49.1 49.1 50.2 53 54 50.2 54 50.2 55.5 55.5 55.5 55.5 50.2 54 50.2"/><rect class="cls-1" x="47.28" y="47.27" width="1.5" height="1.5" transform="translate(-19.89 48.1) rotate(-45.06)"/><rect class="cls-1" x="45.19" y="45.21" width="1.5" height="1.5" transform="translate(-19.04 46.04) rotate(-45.08)"/><polygon class="cls-1" points="8.3 31.8 2.8 31.8 4.8 29.8 3.7 28.8 0 32.5 3.7 36.2 4.8 35.2 2.8 33.2 8.3 33.2 8.3 31.8"/><rect class="cls-1" x="9.8" y="31.8" width="1.5" height="1.5"/><rect class="cls-1" x="12.7" y="31.8" width="1.5" height="1.5"/><polygon class="cls-1" points="61.3 28.8 60.2 29.8 62.2 31.8 56.7 31.8 56.7 33.2 62.2 33.2 60.2 35.2 61.3 36.2 65 32.5 61.3 28.8"/><rect class="cls-1" x="50.8" y="31.8" width="1.5" height="1.5"/><rect class="cls-1" x="53.7" y="31.8" width="1.5" height="1.5"/><polygon class="cls-1" points="14.8 49.1 11 53 11 50.2 9.5 50.2 9.5 55.5 14.8 55.5 14.8 54 12 54 15.9 50.2 14.8 49.1"/><rect class="cls-1" x="18.29" y="45.2" width="1.5" height="1.5" transform="translate(-26.94 26.99) rotate(-45.08)"/><rect class="cls-1" x="16.22" y="47.29" width="1.5" height="1.5" transform="translate(-29.03 26.14) rotate(-45.08)"/><polygon class="cls-1" points="50.2 15.9 54 12 54 14.8 55.5 14.8 55.5 9.5 50.2 9.5 50.2 11 53 11 49.1 14.8 50.2 15.9"/><rect class="cls-1" x="45.2" y="18.3" width="1.5" height="1.5" transform="translate(0.02 38.14) rotate(-45.08)"/><rect class="cls-1" x="47.3" y="16.21" width="1.5" height="1.5" transform="translate(2.11 39.01) rotate(-45.08)"/><path class="cls-1" d="M49.3,38.5c-.1-1.9-.3-3.7-.5-5.1v-.1a6.26,6.26,0,0,0-.7-2.2V31a4.89,4.89,0,0,0-1.6-1.6c-.2-.1-.5-.2-.7-.3l-3.7-1.3-1.5,2.9-3.7-1.3L33,36.2H32l-3.7-6.8-3.7,1.3-1.5-2.9-3.7,1.3c-.2.1-.5.2-.7.3A3.54,3.54,0,0,0,17.1,31l-.1.1a4.73,4.73,0,0,0-.7,2.2v.1c-.2,1.4-.4,3.1-.5,5.1v.8h4.5a5.36,5.36,0,0,0-.3,2.3v.8H45.2v-.8a16.41,16.41,0,0,0-.2-2.3h4.5ZM20.5,36c0,.2-.2.8-.3,1.8h-3c.1-1.6.3-3,.4-4.2v-.2a3.19,3.19,0,0,1,.6-1.7,3.84,3.84,0,0,1,1.1-1.1c.2-.1.3-.2.5-.2l2.5-.9.9,1.7A4.45,4.45,0,0,0,21.4,33,5.79,5.79,0,0,0,20.5,36Zm1,4.9c.2-3,.5-4.7.5-4.7V36a3.81,3.81,0,0,1,.7-2.2,3.75,3.75,0,0,1,1.9-1.6l3-1.1,3.5,6.5H34l3.5-6.5,3,1.1.6.3a3.25,3.25,0,0,1,1.3,1.3v.1a5.55,5.55,0,0,1,.7,1.9V36c.2,1.4.4,3.1.5,5H21.5Zm23.2-3.1a14.92,14.92,0,0,1-.2-2.1v-.1a8.09,8.09,0,0,0-.8-2.5V33a5.16,5.16,0,0,0-1.8-1.8l.9-1.7,2.5.9c.2.1.3.1.5.2a5.24,5.24,0,0,1,1.1,1v.1a6.39,6.39,0,0,1,.6,1.6v.2c.2,1.2.3,2.6.4,4.2H44.7Z"/><path class="cls-1" d="M26.7,28.2a5.08,5.08,0,0,0,1.7-.3,6.1,6.1,0,0,0,4.1,1.7,5.5,5.5,0,0,0,4.1-1.7,4.67,4.67,0,0,0,1.7.3,5.2,5.2,0,1,0,0-10.4,4.68,4.68,0,0,0-2.8.9,6,6,0,0,0-6,0,5.47,5.47,0,0,0-2.8-.9,5.2,5.2,0,0,0,0,10.4ZM42.1,23a3.8,3.8,0,0,1-3.8,3.8,1.7,1.7,0,0,1-.7-.1,6.11,6.11,0,0,0,.8-3,5.5,5.5,0,0,0-1.7-4.1,4.19,4.19,0,0,1,1.6-.4A3.8,3.8,0,0,1,42.1,23Zm-5.2.7a4.4,4.4,0,1,1-4.4-4.4A4.44,4.44,0,0,1,36.9,23.7ZM26.7,19.2a2.93,2.93,0,0,1,1.6.4,5.88,5.88,0,0,0-.9,7.1c-.2,0-.5.1-.7.1a3.8,3.8,0,0,1,0-7.6Z"/></svg>