<?xml version="1.0" encoding="utf-8"?>
<!-- Generator: Adobe Illustrator 21.1.0, SVG Export Plug-In . SVG Version: 6.00 Build 0)  -->
<svg version="1.1" id="Isolation_Mode" xmlns="http://www.w3.org/2000/svg" xmlns:xlink="http://www.w3.org/1999/xlink" x="0px"
	 y="0px" viewBox="0 0 255.2 21.7" style="enable-background:new 0 0 255.2 21.7;" xml:space="preserve">
<style type="text/css">
	.st0{fill:#FFFFFF;}
</style>
<polygon class="st0" points="1.5,8.7 10.2,8.7 10.2,10.6 3.5,10.6 3.5,13.8 9.5,13.8 9.5,15.7 3.5,15.7 3.5,20.5 1.5,20.5 "/>
<path class="st0" d="M16.2,8.6h1.9l5.2,11.9h-2.2l-1.2-2.8h-5.6l-1.2,2.8H11L16.2,8.6z M19.2,15.8l-2-4.7l-2,4.7H19.2z"/>
<path class="st0" d="M25,18.8l1.2-1.5c1.1,1,2.3,1.5,3.7,1.5c1.3,0,2.1-0.6,2.1-1.5l0,0c0-0.8-0.5-1.3-2.7-1.8
	c-2.5-0.6-3.9-1.3-3.9-3.5l0,0c0-2,1.7-3.4,4-3.4c1.7,0,3.1,0.5,4.3,1.5l-1.1,1.6c-1.1-0.8-2.1-1.2-3.2-1.2c-1.2,0-1.9,0.6-1.9,1.4
	l0,0c0,0.9,0.5,1.3,2.8,1.9c2.5,0.6,3.8,1.5,3.8,3.5l0,0c0,2.2-1.7,3.5-4.2,3.5C28.1,20.6,26.4,20,25,18.8"/>
<polygon class="st0" points="37.1,8.7 39.2,8.7 39.2,13.6 44.8,13.6 44.8,8.7 46.9,8.7 46.9,20.5 44.8,20.5 44.8,15.5 39.2,15.5 
	39.2,20.5 37.1,20.5 "/>
<rect x="50.5" y="8.7" class="st0" width="2.1" height="11.8"/>
<path class="st0" d="M55.7,14.6L55.7,14.6c0-3.4,2.6-6.1,6.2-6.1c3.6,0,6.1,2.7,6.1,6.1l0,0c0,3.3-2.6,6.1-6.2,6.1
	S55.7,17.9,55.7,14.6 M65.9,14.6L65.9,14.6c0-2.3-1.7-4.2-4-4.2c-2.3,0-4,1.9-4,4.2l0,0c0,2.3,1.7,4.2,4,4.2
	C64.3,18.8,65.9,16.9,65.9,14.6"/>
<polygon class="st0" points="71.1,8.7 73,8.7 79.3,16.8 79.3,8.7 81.3,8.7 81.3,20.5 79.6,20.5 73.1,12.1 73.1,20.5 71.1,20.5 "/>
<rect x="85" y="8.7" class="st0" width="2.1" height="11.8"/>
<polygon class="st0" points="90.7,8.7 92.6,8.7 99,16.8 99,8.7 101,8.7 101,20.5 99.3,20.5 92.8,12.1 92.8,20.5 90.7,20.5 "/>
<path class="st0" d="M104,14.6L104,14.6c0-3.3,2.5-6.1,6.1-6.1c2.1,0,3.3,0.6,4.5,1.6l-1.3,1.6c-0.9-0.8-1.8-1.3-3.3-1.3
	c-2.2,0-3.8,1.9-3.8,4.2l0,0c0,2.4,1.6,4.2,4,4.2c1.1,0,2.1-0.4,2.8-0.9v-2.2h-3v-1.8h5v5c-1.2,1-2.8,1.8-4.9,1.8
	C106.4,20.7,104,18.1,104,14.6"/>
<path class="st0" d="M126.5,8.7h4.7c2.7,0,4.5,1.6,4.5,3.9l0,0c0,2.6-2.1,4-4.7,4h-2.3v3.8h-2.1L126.5,8.7L126.5,8.7z M131,14.8
	c1.6,0,2.5-0.9,2.5-2.1l0,0c0-1.4-1-2.1-2.5-2.1h-2.4v4.2H131z"/>
<path class="st0" d="M137.7,14.6L137.7,14.6c0-3.4,2.6-6.1,6.2-6.1c3.6,0,6.2,2.7,6.2,6.1l0,0c0,3.3-2.6,6.1-6.2,6.1
	S137.7,17.9,137.7,14.6 M147.9,14.6L147.9,14.6c0-2.3-1.7-4.2-4-4.2s-4,1.9-4,4.2l0,0c0,2.3,1.7,4.2,4,4.2
	C146.3,18.8,147.9,16.9,147.9,14.6"/>
<path class="st0" d="M152.3,18.8l1.2-1.5c1.1,1,2.3,1.5,3.7,1.5c1.3,0,2.1-0.6,2.1-1.5l0,0c0-0.8-0.5-1.3-2.7-1.8
	c-2.5-0.6-3.9-1.3-3.9-3.5l0,0c0-2,1.7-3.4,4-3.4c1.7,0,3.1,0.5,4.3,1.5l-1.1,1.6c-1.1-0.8-2.1-1.2-3.2-1.2c-1.2,0-1.9,0.6-1.9,1.4
	l0,0c0,0.9,0.5,1.3,2.8,1.9c2.5,0.6,3.8,1.5,3.8,3.5l0,0c0,2.2-1.7,3.5-4.2,3.5C155.4,20.6,153.7,20,152.3,18.8"/>
<path class="st0" d="M163.6,18.8l1.2-1.5c1.1,1,2.3,1.5,3.7,1.5c1.3,0,2.1-0.6,2.1-1.5l0,0c0-0.8-0.5-1.3-2.7-1.8
	c-2.5-0.6-3.9-1.3-3.9-3.5l0,0c0-2,1.7-3.4,4-3.4c1.7,0,3.1,0.5,4.3,1.5l-1.1,1.6c-1.1-0.8-2.1-1.2-3.2-1.2c-1.2,0-1.9,0.6-1.9,1.4
	l0,0c0,0.9,0.5,1.3,2.8,1.9c2.5,0.6,3.8,1.5,3.8,3.5l0,0c0,2.2-1.7,3.5-4.2,3.5C166.7,20.6,165,20,163.6,18.8"/>
<rect x="175.8" y="8.7" class="st0" width="2.1" height="11.8"/>
<path class="st0" d="M181.5,8.7h5.3c1.3,0,2.4,0.4,3.1,1c0.5,0.5,0.8,1.2,0.8,2l0,0c0,1.4-0.8,2.2-1.7,2.6c1.4,0.5,2.3,1.3,2.3,2.9
	l0,0c0,2.1-1.7,3.2-4.4,3.2h-5.5L181.5,8.7L181.5,8.7z M186.4,13.7c1.3,0,2.2-0.5,2.2-1.6l0,0c0-0.9-0.7-1.5-2.1-1.5h-3v3.1H186.4z
	 M187,18.6c1.4,0,2.3-0.6,2.3-1.6l0,0c0-1-0.8-1.6-2.4-1.6h-3.3v3.2H187z"/>
<rect x="194.3" y="8.7" class="st0" width="2.1" height="11.8"/>
<polygon class="st0" points="200,8.7 202.1,8.7 202.1,18.6 208.3,18.6 208.3,20.5 200,20.5 "/>
<rect x="211" y="8.7" class="st0" width="2.1" height="11.8"/>
<polygon class="st0" points="219.7,10.6 215.9,10.6 215.9,8.7 225.5,8.7 225.5,10.6 221.8,10.6 221.8,20.5 219.7,20.5 "/>
<rect x="228.3" y="8.7" class="st0" width="2.1" height="11.8"/>
<polygon class="st0" points="234,8.7 242.8,8.7 242.8,10.5 236.1,10.5 236.1,13.6 242,13.6 242,15.5 236.1,15.5 236.1,18.6 
	242.9,18.6 242.9,20.5 234,20.5 "/>
<path class="st0" d="M245,18.8l1.2-1.5c1.1,1,2.3,1.5,3.7,1.5c1.3,0,2.1-0.6,2.1-1.5l0,0c0-0.8-0.5-1.3-2.7-1.8
	c-2.5-0.6-3.9-1.3-3.9-3.5l0,0c0-2,1.7-3.4,4-3.4c1.7,0,3.1,0.5,4.3,1.5l-1.1,1.6c-1.1-0.8-2.1-1.2-3.2-1.2c-1.2,0-1.9,0.6-1.9,1.4
	l0,0c0,0.9,0.5,1.3,2.8,1.9c2.5,0.6,3.8,1.5,3.8,3.5l0,0c0,2.2-1.7,3.5-4.2,3.5C248.1,20.6,246.4,20,245,18.8"/>
</svg>
