<?xml version="1.0" encoding="utf-8"?>
<!-- Generator: Adobe Illustrator 21.1.0, SVG Export Plug-In . SVG Version: 6.00 Build 0)  -->
<svg version="1.1" id="Isolation_Mode" xmlns="http://www.w3.org/2000/svg" xmlns:xlink="http://www.w3.org/1999/xlink" x="0px"
	 y="0px" viewBox="0 0 255.2 65" style="enable-background:new 0 0 255.2 65;" xml:space="preserve">
<style type="text/css">
	.st0{fill:#FFFFFF;}
</style>
<path class="st0" d="M29.8,1.1L6.6,52.4C5.5,54.9,3.3,56,1.4,56v1H13v-1c-2,0-4.2-1.1-3.6-2.4c0.2-0.5,0.3-0.7,0.6-1.4l17.8-40.3
	l19.8,40.5c0.3,0.6,0.7,1.3,0.7,1.8c0,1.4-2,1.9-3.8,1.9v1H62v-1c-1.8,0-3.9-0.7-5.1-3.6l-26-51.3h-1.1V1.1z"/>
<path class="st0" d="M180.3,16.9c-8.5,0.1-13.2,4.4-13.2,11.8v25.4c0,1.1,1.3,1.9,2.8,1.9v0.9h-13V56c1.5,0,2.8-0.8,2.8-1.9V31.3
	c0-12.2,8.4-16.8,20.6-16.8c12.2,0,20.6,4.6,20.6,16.8v22.8c0,1.1,1.3,1.9,2.8,1.9v0.9h-13V56c1.5,0,2.8-0.8,2.8-1.9V28.7
	C193.5,21.4,188.8,17,180.3,16.9"/>
<path class="st0" d="M115.7,59.4l17.5-40c0.9-2,2.4-2.7,4.4-2.7v-0.9h-10v0.9c1.6,0,2.9,0.5,2.9,1.3c0,0.4-0.2,0.9-0.5,1.3
	l-12.5,29.2l-13.4-29.2c-0.2-0.5-0.5-1-0.5-1.4c0-0.9,1.6-1.2,2.9-1.2v-0.9H94.1c0,0,0.6,1.3,1.6,3.6l19.1,40H115.7z"/>
<path class="st0" d="M150.4,56.9V56c-1.5,0-2.8-0.8-2.8-1.9V18.7c0-1.1,1.2-1.9,3.1-1.9v-0.9H137v0.9c1.8,0,3.2,0.8,3.2,1.9v35.4
	c0,1.1-1.4,1.9-3.2,1.9v0.9C137,56.9,150.4,56.9,150.4,56.9z"/>
<path class="st0" d="M212.4,54.1c0,1.1-1.2,1.9-2.7,1.9v0.9h24.8c12.2,0,19.6-8.6,19.6-20.6s-8.7-20.6-21.1-20.6h-23.4v0.9
	c1.4,0,2.7,0.8,2.7,1.9L212.4,54.1L212.4,54.1z M219.9,18.2h12c9.2,0,14.6,8.1,14.6,18.1s-4.5,18.1-13.3,18.1h-13.4L219.9,18.2
	L219.9,18.2z"/>

<path class="st0" d="M64.5,34.6c0-2.1-0.1-4.3,0.7-6.9c2.1-7.5,9.4-12.8,18-13.2c0.7,0,1.4,0,2.1,0c0.9,0,1.5,0.1,2.2,0.2l1.3,0.1
	c1.1,0.1,2-1.1,2.2-2.6h0.9v12.5H91c0-1.6-0.5-6.3-3.8-7.3c-0.4-0.1-0.8-0.2-1.2-0.3c-0.5-0.1-1-0.2-1.5-0.2c-1.1,0-2.3,0.1-2.8,0.2
	c-7.6,1.1-9.7,7.5-9.7,13.4v23.7c0,1.1,1.4,1.9,3.2,1.9V57H61.8v-0.9c1.5,0,2.8-0.8,2.8-1.9L64.5,34.6L64.5,34.6z"/>
</svg>
