<?xml version="1.0" encoding="utf-8"?>
<!-- Generator: Adobe Illustrator 21.1.0, SVG Export Plug-In . SVG Version: 6.00 Build 0)  -->
<svg version="1.1" id="Layer_1" xmlns="http://www.w3.org/2000/svg" xmlns:xlink="http://www.w3.org/1999/xlink" x="0px" y="0px"
	 viewBox="0 0 61.4 77.5" style="enable-background:new 0 0 61.4 77.5;" xml:space="preserve">
<style type="text/css">
	.st0{fill:#333;}
</style>
<g>
	<path class="st0" d="M31,15.5c-7.5,0-13.7,6.3-13.7,14s6.1,14,13.7,14s13.7-6.3,13.7-14S38.5,15.5,31,15.5z M31,40.5
		c-5.9,0-10.7-4.9-10.7-11s4.8-11,10.7-11s10.7,4.9,10.7,11S36.9,40.5,31,40.5z"/>
	<path class="st0" d="M31,0.5C15,0.5,1.7,13.3,0.6,29.7C0.3,33.9,0.9,38,2.4,42.1c1.4,3.9,3.8,7.6,6.9,11L29.9,77
		c0.3,0.3,0.7,0.5,1.1,0.5s0.9-0.2,1.1-0.5l20.5-23.9c3.2-3.4,5.5-7.1,6.9-11c1.5-4.1,2.1-8.2,1.8-12.4C60.3,13.3,47,0.5,31,0.5z
		 M56.8,41c-1.3,3.6-3.4,6.9-6.4,10L31,73.7L11.5,51c-2.9-3.1-5-6.4-6.3-10c-1.3-3.7-1.9-7.4-1.6-11.1C4.5,16.9,15,3.5,31,3.5
		s26.6,13.4,27.4,26.4C58.7,33.6,58.1,37.4,56.8,41z"/>
</g>
</svg>
