<?xml version="1.0" encoding="utf-8"?>
<!-- Generator: Adobe Illustrator 21.0.0, SVG Export Plug-In . SVG Version: 6.00 Build 0)  -->
<svg version="1.1" id="Isolation_Mode" xmlns="http://www.w3.org/2000/svg" xmlns:xlink="http://www.w3.org/1999/xlink" x="0px"
	 y="0px" viewBox="0 0 255.2 88.7" style="enable-background:new 0 0 255.2 88.7;" xml:space="preserve">
<style type="text/css">
	.st0{fill-rule:evenodd;clip-rule:evenodd;fill:#FFFFFF;}
	.st1{fill:#FFFFFF;}
</style>
<path class="st0" d="M29.8,1.1L6.6,52.4c-1.1,2.5-3.3,3.6-5.2,3.6v1H13v-1c-2,0-4.2-1.1-3.6-2.4c0.2-0.5,0.3-0.7,0.6-1.4l17.8-40.3
	l19.8,40.5c0.3,0.6,0.7,1.3,0.7,1.8c0,1.4-2,1.9-3.8,1.9v1H62v-1c-1.8,0-3.9-0.7-5.1-3.6l-26-51.3H29.8z"/>
<path class="st0" d="M115.7,59.4l17.5-40c0.9-2,2.4-2.7,4.4-2.7v-0.9h-10v0.9c1.6,0,2.9,0.5,2.9,1.3c0,0.4-0.2,0.9-0.5,1.3
	l-12.5,29.2l-13.4-29.2c-0.2-0.5-0.5-1-0.5-1.4c0-0.9,1.6-1.2,2.9-1.2v-0.9H94.1c0,0,0.6,1.3,1.6,3.6l19.1,40H115.7z"/>
<path class="st0" d="M150.4,56.9V56c-1.5,0-2.8-0.8-2.8-1.9V18.7c0-1.1,1.2-1.9,3.1-1.9v-0.9H137v0.9c1.8,0,3.2,0.8,3.2,1.9v35.4
	c0,1.1-1.4,1.9-3.2,1.9v0.9H150.4z"/>
<path class="st0" d="M212.4,54.1c0,1.1-1.2,1.9-2.7,1.9v0.9h24.8c12.2,0,19.6-8.6,19.6-20.6c0-12-8.7-20.6-21.1-20.6h-23.4v0.9
	c1.4,0,2.7,0.8,2.7,1.9V54.1z M219.9,18.2h12c9.2,0,14.6,8.1,14.6,18.1c0,10-4.5,18.1-13.3,18.1h-13.4V18.2z"/>
<path class="st1" d="M180.3,16.9c-8.5,0.1-13.2,4.4-13.2,11.8v25.4c0,1.1,1.3,1.9,2.8,1.9v0.9h-13V56c1.5,0,2.8-0.8,2.8-1.9V31.3
	c0-12.2,8.4-16.8,20.6-16.8c12.2,0,20.6,4.6,20.6,16.8v22.8c0,1.1,1.3,1.9,2.8,1.9v0.9h-13V56c1.5,0,2.8-0.8,2.8-1.9V28.7
	C193.5,21.4,188.8,17,180.3,16.9"/>
<path class="st1" d="M64.5,34.6c0-2.1-0.1-4.3,0.7-6.9c2.1-7.5,9.4-12.8,18-13.2c0.7,0,1.4,0,2.1,0c0.9,0,1.5,0.1,2.2,0.2l1.3,0.1
	c1.1,0.1,2-1.1,2.2-2.6l0.9,0l0,12.5H91c0-1.6-0.5-6.3-3.8-7.3c-0.4-0.1-0.8-0.2-1.2-0.3c-0.5-0.1-1-0.2-1.5-0.2
	c-1.1,0-2.3,0.1-2.8,0.2c-7.6,1.1-9.7,7.5-9.7,13.4v23.7c0,1.1,1.4,1.9,3.2,1.9V57H61.8v-0.9c1.5,0,2.8-0.8,2.8-1.9V34.6z"/>
<polygon class="st1" points="1.5,75.7 10.2,75.7 10.2,77.6 3.5,77.6 3.5,80.8 9.5,80.8 9.5,82.7 3.5,82.7 3.5,87.5 1.5,87.5 "/>
<path class="st1" d="M16.2,75.6h1.9l5.2,11.9h-2.2l-1.2-2.8h-5.6l-1.2,2.8H11L16.2,75.6z M19.2,82.8l-2-4.7l-2,4.7H19.2z"/>
<path class="st1" d="M25,85.8l1.2-1.5c1.1,1,2.3,1.5,3.7,1.5c1.3,0,2.1-0.6,2.1-1.5v0c0-0.8-0.5-1.3-2.7-1.8
	c-2.5-0.6-3.9-1.3-3.9-3.5v0c0-2,1.7-3.4,4-3.4c1.7,0,3.1,0.5,4.3,1.5l-1.1,1.6c-1.1-0.8-2.1-1.2-3.2-1.2c-1.2,0-1.9,0.6-1.9,1.4v0
	c0,0.9,0.5,1.3,2.8,1.9c2.5,0.6,3.8,1.5,3.8,3.5v0c0,2.2-1.7,3.5-4.2,3.5C28.1,87.6,26.4,87,25,85.8"/>
<polygon class="st1" points="37.1,75.7 39.2,75.7 39.2,80.6 44.8,80.6 44.8,75.7 46.9,75.7 46.9,87.5 44.8,87.5 44.8,82.5 
	39.2,82.5 39.2,87.5 37.1,87.5 "/>
<rect x="50.5" y="75.7" class="st1" width="2.1" height="11.8"/>
<path class="st1" d="M55.7,81.6L55.7,81.6c0-3.4,2.6-6.1,6.2-6.1c3.6,0,6.1,2.7,6.1,6.1v0c0,3.3-2.6,6.1-6.2,6.1
	S55.7,84.9,55.7,81.6 M65.9,81.6L65.9,81.6c0-2.3-1.7-4.2-4-4.2c-2.3,0-4,1.9-4,4.2v0c0,2.3,1.7,4.2,4,4.2
	C64.3,85.8,65.9,83.9,65.9,81.6"/>
<polygon class="st1" points="71.1,75.7 73,75.7 79.3,83.8 79.3,75.7 81.3,75.7 81.3,87.5 79.6,87.5 73.1,79.1 73.1,87.5 71.1,87.5 
	"/>
<rect x="85" y="75.7" class="st1" width="2.1" height="11.8"/>
<polygon class="st1" points="90.7,75.7 92.6,75.7 99,83.8 99,75.7 101,75.7 101,87.5 99.3,87.5 92.8,79.1 92.8,87.5 90.7,87.5 "/>
<path class="st1" d="M104,81.6L104,81.6c0-3.3,2.5-6.1,6.1-6.1c2.1,0,3.3,0.6,4.5,1.6l-1.3,1.6c-0.9-0.8-1.8-1.3-3.3-1.3
	c-2.2,0-3.8,1.9-3.8,4.2v0c0,2.4,1.6,4.2,4,4.2c1.1,0,2.1-0.4,2.8-0.9v-2.2h-3v-1.8h5v5c-1.2,1-2.8,1.8-4.9,1.8
	C106.4,87.7,104,85.1,104,81.6"/>
<path class="st1" d="M126.5,75.7h4.7c2.7,0,4.5,1.6,4.5,3.9v0c0,2.6-2.1,4-4.7,4h-2.3v3.8h-2.1V75.7z M131,81.8
	c1.6,0,2.5-0.9,2.5-2.1v0c0-1.4-1-2.1-2.5-2.1h-2.4v4.2H131z"/>
<path class="st1" d="M137.7,81.6L137.7,81.6c0-3.4,2.6-6.1,6.2-6.1c3.6,0,6.2,2.7,6.2,6.1v0c0,3.3-2.6,6.1-6.2,6.1
	S137.7,84.9,137.7,81.6 M147.9,81.6L147.9,81.6c0-2.3-1.7-4.2-4-4.2c-2.3,0-4,1.9-4,4.2v0c0,2.3,1.7,4.2,4,4.2
	C146.3,85.8,147.9,83.9,147.9,81.6"/>
<path class="st1" d="M152.3,85.8l1.2-1.5c1.1,1,2.3,1.5,3.7,1.5c1.3,0,2.1-0.6,2.1-1.5v0c0-0.8-0.5-1.3-2.7-1.8
	c-2.5-0.6-3.9-1.3-3.9-3.5v0c0-2,1.7-3.4,4-3.4c1.7,0,3.1,0.5,4.3,1.5l-1.1,1.6c-1.1-0.8-2.1-1.2-3.2-1.2c-1.2,0-1.9,0.6-1.9,1.4v0
	c0,0.9,0.5,1.3,2.8,1.9c2.5,0.6,3.8,1.5,3.8,3.5v0c0,2.2-1.7,3.5-4.2,3.5C155.4,87.6,153.7,87,152.3,85.8"/>
<path class="st1" d="M163.6,85.8l1.2-1.5c1.1,1,2.3,1.5,3.7,1.5c1.3,0,2.1-0.6,2.1-1.5v0c0-0.8-0.5-1.3-2.7-1.8
	c-2.5-0.6-3.9-1.3-3.9-3.5v0c0-2,1.7-3.4,4-3.4c1.7,0,3.1,0.5,4.3,1.5l-1.1,1.6c-1.1-0.8-2.1-1.2-3.2-1.2c-1.2,0-1.9,0.6-1.9,1.4v0
	c0,0.9,0.5,1.3,2.8,1.9c2.5,0.6,3.8,1.5,3.8,3.5v0c0,2.2-1.7,3.5-4.2,3.5C166.7,87.6,165,87,163.6,85.8"/>
<rect x="175.8" y="75.7" class="st1" width="2.1" height="11.8"/>
<path class="st1" d="M181.5,75.7h5.3c1.3,0,2.4,0.4,3.1,1c0.5,0.5,0.8,1.2,0.8,2v0c0,1.4-0.8,2.2-1.7,2.6c1.4,0.5,2.3,1.3,2.3,2.9v0
	c0,2.1-1.7,3.2-4.4,3.2h-5.5V75.7z M186.4,80.7c1.3,0,2.2-0.5,2.2-1.6v0c0-0.9-0.7-1.5-2.1-1.5h-3v3.1H186.4z M187,85.6
	c1.4,0,2.3-0.6,2.3-1.6v0c0-1-0.8-1.6-2.4-1.6h-3.3v3.2H187z"/>
<rect x="194.3" y="75.7" class="st1" width="2.1" height="11.8"/>
<polygon class="st1" points="200,75.7 202.1,75.7 202.1,85.6 208.3,85.6 208.3,87.5 200,87.5 "/>
<rect x="211" y="75.7" class="st1" width="2.1" height="11.8"/>
<polygon class="st1" points="219.7,77.6 215.9,77.6 215.9,75.7 225.5,75.7 225.5,77.6 221.8,77.6 221.8,87.5 219.7,87.5 "/>
<rect x="228.3" y="75.7" class="st1" width="2.1" height="11.8"/>
<polygon class="st1" points="234,75.7 242.8,75.7 242.8,77.5 236.1,77.5 236.1,80.6 242,80.6 242,82.5 236.1,82.5 236.1,85.6 
	242.9,85.6 242.9,87.5 234,87.5 "/>
<path class="st1" d="M245,85.8l1.2-1.5c1.1,1,2.3,1.5,3.7,1.5c1.3,0,2.1-0.6,2.1-1.5v0c0-0.8-0.5-1.3-2.7-1.8
	c-2.5-0.6-3.9-1.3-3.9-3.5v0c0-2,1.7-3.4,4-3.4c1.7,0,3.1,0.5,4.3,1.5l-1.1,1.6c-1.1-0.8-2.1-1.2-3.2-1.2c-1.2,0-1.9,0.6-1.9,1.4v0
	c0,0.9,0.5,1.3,2.8,1.9c2.5,0.6,3.8,1.5,3.8,3.5v0c0,2.2-1.7,3.5-4.2,3.5C248.1,87.6,246.4,87,245,85.8"/>
</svg>
