<?xml version="1.0" encoding="utf-8"?>
<!-- Generator: Adobe Illustrator 21.0.0, SVG Export Plug-In . SVG Version: 6.00 Build 0)  -->
<svg version="1.1" id="Layer_1" xmlns="http://www.w3.org/2000/svg" xmlns:xlink="http://www.w3.org/1999/xlink" x="0px" y="0px"
	 viewBox="0 0 90.1 89.7" style="enable-background:new 0 0 90.1 89.7;" xml:space="preserve">
<style type="text/css">
	.st0{fill:#FFFFFF;}
</style>
<g transform="matrix( 1, 0, 0, 1, 0,0) ">
	<g>
		<g id="a">
			<path class="st0" d="M90.2,86c0-1-0.4-1.9-1.1-2.6L62.2,56.6c5.2-6.2,7.8-13.5,7.8-21.9c0-9.6-3.4-17.8-10.3-24.6
				C52.9,3.4,44.7,0,35,0S17,3.4,10.2,10.1C3.4,16.9,0,25.1,0,34.7s3.4,17.8,10.2,24.5C17.1,66,25.3,69.4,35,69.4
				c8.4,0,15.8-2.6,22-7.7l26.9,26.8c0.7,0.7,1.6,1.1,2.6,1.1s1.9-0.4,2.6-1.1C89.8,87.9,90.2,87,90.2,86 M54.6,15.2
				c5.4,5.4,8.2,11.9,8.2,19.5s-2.7,14-8,19.3l-0.2,0.2c-5.4,5.3-11.9,8-19.5,8c-7.7,0-14.2-2.7-19.6-8.1c-5.4-5.3-8-11.8-8-19.4
				c0-7.6,2.7-14.1,8-19.5c5.4-5.3,12-8,19.6-8S49.2,9.9,54.6,15.2z"/>
		</g>
	</g>
</g>
</svg>
