<?xml version="1.0" encoding="utf-8"?>
<!-- Generator: Adobe Illustrator 21.1.0, SVG Export Plug-In . SVG Version: 6.00 Build 0)  -->
<svg version="1.1"
	 id="Layer_1" xmlns:cc="http://creativecommons.org/ns#" xmlns:dc="http://purl.org/dc/elements/1.1/" xmlns:inkscape="http://www.inkscape.org/namespaces/inkscape" xmlns:rdf="http://www.w3.org/1999/02/22-rdf-syntax-ns#" xmlns:sodipodi="http://sodipodi.sourceforge.net/DTD/sodipodi-0.dtd" xmlns:svg="http://www.w3.org/2000/svg"
	 xmlns="http://www.w3.org/2000/svg" xmlns:xlink="http://www.w3.org/1999/xlink" x="0px" y="0px" viewBox="0 0 86.2 82.1"
	 style="enable-background:new 0 0 86.2 82.1;" xml:space="preserve">
<style type="text/css">
	.st0{fill:#FFFFFF;}
</style>
<path class="st0" d="M43,0.2L43,0.2C19.5,0.2,0,15.8,0,35.6c0,10.9,6.4,19.9,15.6,26.2L8.2,79.4c-0.4,1,0,2.2,1.1,2.6
	c0.6,0.2,1.2,0.2,1.8-0.1l21.5-11.7c3.2,0.5,7.5,0.8,10.6,0.8c23.5,0,43-15.6,43-35.4C86,15.9,66.5,0.2,43,0.2z M43,66.2
	c-3,0-7.6-0.3-10.2-0.8c-0.5-0.1-0.9,0-1.3,0.2l-16.4,8.9l5.6-13.2c0.4-0.9,0-1.8-0.8-2.3C11,53.2,5.3,45.4,5.3,35.8
	C5.3,19.3,21.9,5.5,43,5.5l0,0c21.1,0,37.7,13.8,37.7,30.3C80.7,52.4,64.1,66.2,43,66.2z"/>
</svg>
